<svg width="36" height="36" viewBox="0 0 36 36" fill="none" xmlns="http://www.w3.org/2000/svg">
<path d="M13.3654 31.0053C13.0804 31.0053 12.7954 30.9003 12.5704 30.6753C12.1354 30.2403 12.1354 29.5203 12.5704 29.0853L22.3504 19.3053C23.0704 18.5853 23.0704 17.4153 22.3504 16.6953L12.5704 6.91527C12.1354 6.48027 12.1354 5.76027 12.5704 5.32527C13.0054 4.89027 13.7254 4.89027 14.1604 5.32527L23.9404 15.1053C24.7054 15.8703 25.1404 16.9053 25.1404 18.0003C25.1404 19.0953 24.7204 20.1303 23.9404 20.8953L14.1604 30.6753C13.9354 30.8853 13.6504 31.0053 13.3654 31.0053Z" fill="#1E4391"/>
</svg>
