<svg width="25" height="24" viewBox="0 0 25 24" fill="none" xmlns="http://www.w3.org/2000/svg">
<path d="M6.03999 19.5201C5.42999 19.5201 4.85999 19.31 4.44999 18.92C3.92999 18.43 3.67999 17.69 3.76999 16.89L4.13999 13.65C4.20999 13.04 4.57999 12.23 5.00999 11.79L13.22 3.10005C15.27 0.930049 17.41 0.870049 19.58 2.92005C21.75 4.97005 21.81 7.11005 19.76 9.28005L11.55 17.97C11.13 18.42 10.35 18.84 9.73999 18.9401L6.51999 19.49C6.34999 19.5 6.19999 19.5201 6.03999 19.5201ZM16.43 2.91005C15.66 2.91005 14.99 3.39005 14.31 4.11005L6.09999 12.8101C5.89999 13.0201 5.66999 13.5201 5.62999 13.8101L5.25999 17.05C5.21999 17.38 5.29999 17.65 5.47999 17.82C5.65999 17.99 5.92999 18.05 6.25999 18L9.47999 17.4501C9.76999 17.4001 10.25 17.14 10.45 16.93L18.66 8.24005C19.9 6.92005 20.35 5.70005 18.54 4.00005C17.74 3.23005 17.05 2.91005 16.43 2.91005Z" fill="#1E4391"/>
<path d="M17.8399 10.95C17.8199 10.95 17.7899 10.95 17.7699 10.95C14.6499 10.64 12.1399 8.26997 11.6599 5.16997C11.5999 4.75997 11.8799 4.37997 12.2899 4.30997C12.6999 4.24997 13.0799 4.52997 13.1499 4.93997C13.5299 7.35997 15.4899 9.21997 17.9299 9.45997C18.3399 9.49997 18.6399 9.86997 18.5999 10.28C18.5499 10.66 18.2199 10.95 17.8399 10.95Z" fill="#1E4391"/>
</svg>
