<svg width="28" height="28" viewBox="0 0 28 28" fill="none" xmlns="http://www.w3.org/2000/svg">
<path d="M11.0482 17.8266C10.8266 17.8266 10.6049 17.7449 10.4299 17.5699C9.47324 16.6132 8.94824 15.3416 8.94824 13.9999C8.94824 11.2116 11.2116 8.94824 13.9999 8.94824C15.3416 8.94824 16.6132 9.47324 17.5699 10.4299C17.7332 10.5932 17.8266 10.8149 17.8266 11.0482C17.8266 11.2816 17.7332 11.5032 17.5699 11.6666L11.6666 17.5699C11.4916 17.7449 11.2699 17.8266 11.0482 17.8266ZM13.9999 10.6982C12.1799 10.6982 10.6982 12.1799 10.6982 13.9999C10.6982 14.5832 10.8499 15.1432 11.1299 15.6332L15.6332 11.1299C15.1432 10.8499 14.5832 10.6982 13.9999 10.6982Z" fill="#1E4391"/>
<path d="M6.53315 21.5949C6.33482 21.5949 6.12482 21.5249 5.96148 21.3849C4.71315 20.3232 3.59315 19.0166 2.63648 17.4999C1.39982 15.5749 1.39982 12.4366 2.63648 10.4999C5.48315 6.04323 9.62482 3.47656 13.9998 3.47656C16.5665 3.47656 19.0982 4.36323 21.3148 6.03156C21.6998 6.32323 21.7815 6.87156 21.4898 7.25656C21.1982 7.64156 20.6498 7.72323 20.2648 7.43156C18.3515 5.9849 16.1815 5.22656 13.9998 5.22656C10.2315 5.22656 6.62648 7.4899 4.10648 11.4449C3.23148 12.8099 3.23148 15.1899 4.10648 16.5549C4.98148 17.9199 5.98482 19.0982 7.09315 20.0549C7.45482 20.3699 7.50148 20.9182 7.18648 21.2916C7.02315 21.4899 6.77815 21.5949 6.53315 21.5949Z" fill="#1E4391"/>
<path d="M14 24.5234C12.4483 24.5234 10.9317 24.2084 9.47332 23.5901C9.02999 23.4034 8.81999 22.8901 9.00666 22.4467C9.19332 22.0034 9.70666 21.7934 10.15 21.9801C11.3867 22.5051 12.6817 22.7734 13.9883 22.7734C17.7567 22.7734 21.3617 20.5101 23.8817 16.5551C24.7567 15.1901 24.7567 12.8101 23.8817 11.4451C23.52 10.8734 23.1233 10.3251 22.7033 9.81175C22.4 9.43841 22.4583 8.89008 22.8317 8.57508C23.205 8.27175 23.7533 8.31841 24.0683 8.70341C24.5233 9.26341 24.9667 9.87008 25.3633 10.5001C26.6 12.4251 26.6 15.5634 25.3633 17.5001C22.5167 21.9567 18.375 24.5234 14 24.5234Z" fill="#1E4391"/>
<path d="M14.805 18.9821C14.3967 18.9821 14.0233 18.6904 13.9417 18.2704C13.8483 17.7921 14.1633 17.3371 14.6417 17.2554C15.925 17.0221 16.9983 15.9487 17.2317 14.6654C17.325 14.1871 17.78 13.8837 18.2583 13.9654C18.7367 14.0587 19.0517 14.5137 18.9583 14.9921C18.585 17.0104 16.975 18.6087 14.9683 18.9821C14.91 18.9704 14.8633 18.9821 14.805 18.9821Z" fill="#1E4391"/>
<path d="M2.33351 26.5412C2.11184 26.5412 1.89018 26.4595 1.71518 26.2845C1.37684 25.9462 1.37684 25.3862 1.71518 25.0479L10.4302 16.3329C10.7685 15.9945 11.3285 15.9945 11.6668 16.3329C12.0052 16.6712 12.0052 17.2312 11.6668 17.5695L2.95184 26.2845C2.77684 26.4595 2.55518 26.5412 2.33351 26.5412Z" fill="#1E4391"/>
<path d="M16.9517 11.923C16.73 11.923 16.5083 11.8414 16.3333 11.6664C15.995 11.328 15.995 10.768 16.3333 10.4297L25.0483 1.71469C25.3867 1.37635 25.9467 1.37635 26.285 1.71469C26.6233 2.05302 26.6233 2.61302 26.285 2.95135L17.57 11.6664C17.395 11.8414 17.1733 11.923 16.9517 11.923Z" fill="#1E4391"/>
</svg>
