<svg width="28" height="28" viewBox="0 0 28 28" fill="none" xmlns="http://www.w3.org/2000/svg">
<path d="M13.9999 19.0516C11.2116 19.0516 8.94824 16.7882 8.94824 13.9999C8.94824 11.2116 11.2116 8.94824 13.9999 8.94824C16.7882 8.94824 19.0516 11.2116 19.0516 13.9999C19.0516 16.7882 16.7882 19.0516 13.9999 19.0516ZM13.9999 10.6982C12.1799 10.6982 10.6982 12.1799 10.6982 13.9999C10.6982 15.8199 12.1799 17.3016 13.9999 17.3016C15.8199 17.3016 17.3016 15.8199 17.3016 13.9999C17.3016 12.1799 15.8199 10.6982 13.9999 10.6982Z" fill="#1E4391"/>
<path d="M14.0003 24.5242C9.61359 24.5242 5.47192 21.9575 2.62525 17.5009C1.38859 15.5759 1.38859 12.4375 2.62525 10.5009C5.48359 6.04421 9.62525 3.47754 14.0003 3.47754C18.3753 3.47754 22.5169 6.04421 25.3636 10.5009C26.6003 12.4259 26.6003 15.5642 25.3636 17.5009C22.5169 21.9575 18.3753 24.5242 14.0003 24.5242ZM14.0003 5.22754C10.2319 5.22754 6.62692 7.49087 4.10692 11.4459C3.23192 12.8109 3.23192 15.1909 4.10692 16.5559C6.62692 20.5109 10.2319 22.7742 14.0003 22.7742C17.7686 22.7742 21.3736 20.5109 23.8936 16.5559C24.7686 15.1909 24.7686 12.8109 23.8936 11.4459C21.3736 7.49087 17.7686 5.22754 14.0003 5.22754Z" fill="#1E4391"/>
</svg>
