<svg width="30" height="30" viewBox="0 0 30 30" fill="none" xmlns="http://www.w3.org/2000/svg">
<path d="M14.375 27.1875C7.3125 27.1875 1.5625 21.4375 1.5625 14.375C1.5625 7.3125 7.3125 1.5625 14.375 1.5625C21.4375 1.5625 27.1875 7.3125 27.1875 14.375C27.1875 21.4375 21.4375 27.1875 14.375 27.1875ZM14.375 3.4375C8.3375 3.4375 3.4375 8.35 3.4375 14.375C3.4375 20.4 8.3375 25.3125 14.375 25.3125C20.4125 25.3125 25.3125 20.4 25.3125 14.375C25.3125 8.35 20.4125 3.4375 14.375 3.4375Z" fill="#1E4391"/>
<path d="M27.4998 28.4374C27.2623 28.4374 27.0248 28.3499 26.8373 28.1624L24.3373 25.6624C23.9748 25.2999 23.9748 24.6999 24.3373 24.3374C24.6998 23.9749 25.2998 23.9749 25.6623 24.3374L28.1623 26.8374C28.5248 27.1999 28.5248 27.7999 28.1623 28.1624C27.9748 28.3499 27.7373 28.4374 27.4998 28.4374Z" fill="#1E4391"/>
</svg>
