<svg width="38" height="39" viewBox="0 0 38 39" fill="none" xmlns="http://www.w3.org/2000/svg">
<path d="M33.2498 11.1562C33.2181 11.1562 33.1706 11.1562 33.1231 11.1562C24.7473 10.3171 16.3873 10.0004 8.10647 10.8396L4.87647 11.1562C4.21147 11.2196 3.62564 10.7446 3.56231 10.0796C3.49897 9.41458 3.97397 8.84458 4.62314 8.78124L7.85314 8.46458C16.2765 7.60958 24.8106 7.94208 33.3606 8.78124C34.0098 8.84458 34.4848 9.43041 34.4215 10.0796C34.374 10.6971 33.8515 11.1562 33.2498 11.1562Z" fill="#222222"/>
<path d="M13.4602 9.55602C13.3968 9.55602 13.3335 9.55602 13.2543 9.54018C12.621 9.42935 12.1777 8.81185 12.2885 8.17852L12.6368 6.10435C12.8902 4.58435 13.2385 2.47852 16.9277 2.47852H21.076C24.781 2.47852 25.1293 4.66352 25.3668 6.12018L25.7152 8.17852C25.826 8.82768 25.3827 9.44518 24.7493 9.54018C24.1002 9.65102 23.4827 9.20768 23.3877 8.57435L23.0393 6.51602C22.8177 5.13852 22.7702 4.86935 21.0918 4.86935H16.9435C15.2652 4.86935 15.2335 5.09102 14.996 6.50018L14.6318 8.55852C14.5368 9.14435 14.0302 9.55602 13.4602 9.55602Z" fill="#222222"/>
<path d="M24.0838 36.5194H13.9188C8.39293 36.5194 8.17126 33.4635 7.9971 30.9935L6.96793 15.0494C6.92043 14.4002 7.4271 13.8302 8.07626 13.7827C8.74126 13.751 9.29543 14.2419 9.34293 14.891L10.3721 30.8352C10.5463 33.2419 10.6096 34.1444 13.9188 34.1444H24.0838C27.4088 34.1444 27.4721 33.2419 27.6304 30.8352L28.6596 14.891C28.7071 14.2419 29.2771 13.751 29.9263 13.7827C30.5754 13.8302 31.0821 14.3844 31.0346 15.0494L30.0054 30.9935C29.8313 33.4635 29.6096 36.5194 24.0838 36.5194Z" fill="#222222"/>
<path d="M21.6299 27.8125H16.3574C15.7083 27.8125 15.1699 27.2742 15.1699 26.625C15.1699 25.9758 15.7083 25.4375 16.3574 25.4375H21.6299C22.2791 25.4375 22.8174 25.9758 22.8174 26.625C22.8174 27.2742 22.2791 27.8125 21.6299 27.8125Z" fill="#222222"/>
<path d="M22.9577 21.4785H15.041C14.3918 21.4785 13.8535 20.9402 13.8535 20.291C13.8535 19.6418 14.3918 19.1035 15.041 19.1035H22.9577C23.6068 19.1035 24.1452 19.6418 24.1452 20.291C24.1452 20.9402 23.6068 21.4785 22.9577 21.4785Z" fill="#222222"/>
</svg>
